<svg width="50" height="50" viewBox="0 0 50 50" fill="none" xmlns="http://www.w3.org/2000/svg">
<rect width="50" height="50" fill="white"/>
<path d="M30.5116 13.0087H27.3936C26.6116 12.9646 25.8291 13.0882 25.0991 13.3714C24.3691 13.6546 23.7084 14.0907 23.1617 14.6503C22.615 15.2099 22.195 15.88 21.93 16.6154C21.665 17.3507 21.5612 18.1342 21.6256 18.913V21.6346H18.4908C18.4263 21.6346 18.3625 21.6473 18.303 21.6719C18.2434 21.6965 18.1893 21.7326 18.1438 21.7781C18.0982 21.8235 18.062 21.8775 18.0374 21.9369C18.0127 21.9963 18 22.06 18 22.1243V26.0688C18 26.1987 18.0517 26.3232 18.1438 26.415C18.2358 26.5068 18.3606 26.5584 18.4908 26.5584H21.6268V36.5104C21.6267 36.5747 21.6392 36.6385 21.6638 36.6979C21.6885 36.7574 21.7246 36.8114 21.7702 36.8569C21.8158 36.9024 21.87 36.9385 21.9296 36.9631C21.9892 36.9876 22.0531 37.0002 22.1176 37H26.2075C26.272 37 26.3358 36.9873 26.3954 36.9627C26.4549 36.9381 26.509 36.9021 26.5546 36.8566C26.6002 36.8111 26.6363 36.7572 26.661 36.6978C26.6856 36.6383 26.6983 36.5747 26.6983 36.5104V26.5572H30.3648C30.4293 26.5574 30.4932 26.5448 30.5528 26.5203C30.6125 26.4957 30.6666 26.4597 30.7122 26.4142C30.7578 26.3687 30.794 26.3146 30.8186 26.2552C30.8432 26.1957 30.8558 26.1319 30.8556 26.0676V22.1291C30.8556 22.0648 30.8429 22.0011 30.8183 21.9417C30.7936 21.8823 30.7575 21.8283 30.7119 21.7829C30.6663 21.7374 30.6122 21.7013 30.5527 21.6767C30.4931 21.6521 30.4293 21.6394 30.3648 21.6394H26.6971V19.327C26.6971 18.2181 26.9618 17.6553 28.4101 17.6553H30.5104C30.6403 17.655 30.7649 17.6033 30.8567 17.5115C30.9484 17.4197 31 17.2953 31 17.1657V13.5032C31.0006 13.4387 30.9885 13.3747 30.9642 13.3149C30.94 13.2551 30.9042 13.2006 30.8588 13.1547C30.8134 13.1087 30.7594 13.0722 30.6998 13.0472C30.6402 13.0221 30.5762 13.0091 30.5116 13.0087Z" fill="#5A5C61" fill-opacity="0.5"/>
</svg>
