<svg width="50" height="50" viewBox="0 0 50 50" fill="none" xmlns="http://www.w3.org/2000/svg">
<rect width="50" height="50" fill="white"/>
<path fill-rule="evenodd" clip-rule="evenodd" d="M24.5015 19.2508C23.2652 19.2508 22.0567 19.6174 21.0287 20.3042C20.0008 20.9911 19.1997 21.9673 18.7266 23.1095C18.2535 24.2516 18.1297 25.5084 18.3708 26.721C18.612 27.9335 19.2074 29.0473 20.0815 29.9215C20.9557 30.7956 22.0695 31.3909 23.282 31.6321C24.4945 31.8733 25.7514 31.7495 26.8935 31.2764C28.0357 30.8033 29.0119 30.0022 29.6988 28.9742C30.3856 27.9463 30.7522 26.7378 30.7522 25.5015C30.7522 23.8437 30.0937 22.2538 28.9214 21.0816C27.7492 19.9093 26.1593 19.2508 24.5015 19.2508ZM24.5015 29.4069C23.7288 29.4069 22.9734 29.1778 22.3309 28.7485C21.6884 28.3192 21.1877 27.709 20.892 26.9952C20.5963 26.2813 20.5189 25.4957 20.6696 24.7378C20.8204 23.98 21.1925 23.2839 21.7389 22.7375C22.2853 22.1911 22.9814 21.819 23.7393 21.6682C24.4971 21.5175 25.2827 21.5948 25.9966 21.8905C26.7105 22.1862 27.3206 22.687 27.7499 23.3295C28.1792 23.972 28.4084 24.7273 28.4084 25.5C28.4072 26.5359 27.9952 27.5289 27.2628 28.2613C26.5303 28.9938 25.5373 29.4058 24.5015 29.4069Z" fill="#5A5C61" fill-opacity="0.5"/>
<path d="M32.0511 18.7812C32.0511 19.2408 31.6785 19.6133 31.2189 19.6133C30.7593 19.6133 30.3868 19.2408 30.3868 18.7812C30.3868 18.3216 30.7593 17.949 31.2189 17.949C31.6785 17.949 32.0511 18.3216 32.0511 18.7812Z" fill="#5A5C61" fill-opacity="0.5"/>
<path fill-rule="evenodd" clip-rule="evenodd" d="M29.1877 13H19.8123C17.7405 13.0004 15.7536 13.8236 14.2886 15.2886C12.8236 16.7536 12.0004 18.7405 12 20.8123V30.1877C12.0004 32.2595 12.8236 34.2464 14.2886 35.7114C15.7536 37.1764 17.7405 37.9996 19.8123 38H29.1877C31.2595 37.9996 33.2464 37.1764 34.7114 35.7114C36.1764 34.2464 36.9996 32.2595 37 30.1877V20.8123C36.9996 18.7405 36.1764 16.7536 34.7114 15.2886C33.2464 13.8236 31.2595 13.0004 29.1877 13ZM34.6562 30.1877C34.6546 31.6375 34.078 33.0276 33.0528 34.0528C32.0276 35.078 30.6375 35.6546 29.1877 35.6562H19.8123C18.3632 35.6534 16.9743 35.0763 15.9501 34.0512C14.9258 33.0261 14.3498 31.6368 14.3482 30.1877V20.8123C14.351 19.364 14.9275 17.9758 15.9516 16.9516C16.9758 15.9275 18.364 15.351 19.8123 15.3482H29.1877C30.6375 15.3498 32.0276 15.9264 33.0528 16.9516C34.078 17.9768 34.6546 19.3669 34.6562 20.8167V30.1877Z" fill="#5A5C61" fill-opacity="0.5"/>
</svg>
