<svg width="50" height="50" viewBox="0 0 50 50" fill="none" xmlns="http://www.w3.org/2000/svg">
<rect width="50" height="50" fill="white"/>
<path d="M37.8554 31.4317C37.8272 31.3693 37.7956 31.3085 37.7608 31.2495C36.9957 30.0459 36.0569 28.9616 34.9747 28.0316L34.9454 28.0024L34.9321 27.993L34.9175 27.9784H34.8975C34.276 27.3863 33.8822 26.9873 33.7162 26.7817C33.5739 26.6245 33.4791 26.4303 33.4428 26.2216C33.4065 26.0128 33.4302 25.7981 33.5111 25.6022C33.8804 24.9223 34.3206 24.2832 34.8243 23.6954C35.2229 23.1813 35.539 22.7686 35.7725 22.4575C37.455 20.2245 38.1844 18.7973 37.9606 18.1758L37.874 18.0309C37.7518 17.9064 37.5942 17.8224 37.4226 17.7902C37.1176 17.7147 36.8003 17.7025 36.4903 17.7543L32.2899 17.7836C32.1937 17.7597 32.0929 17.7625 31.9982 17.7916L31.8091 17.8354L31.7358 17.8713L31.6772 17.9152C31.6151 17.9565 31.5606 18.0083 31.5161 18.0681C31.4554 18.1456 31.4065 18.2317 31.3709 18.3234C30.935 19.4537 30.4132 20.549 29.8101 21.5998C29.4505 22.2017 29.1198 22.7234 28.8179 23.1649C28.5925 23.5104 28.339 23.8368 28.0601 24.1409C27.8875 24.3213 27.7024 24.4893 27.5061 24.6435C27.3409 24.7703 27.2144 24.8239 27.1265 24.8044L26.8788 24.7459C26.7412 24.6567 26.6284 24.5341 26.5512 24.3896C26.4603 24.2124 26.4034 24.0198 26.3834 23.8218C26.3541 23.5931 26.3372 23.3963 26.3328 23.2314C26.3283 23.0665 26.331 22.8333 26.3408 22.5319C26.3505 22.2306 26.3554 22.0267 26.3554 21.9203C26.3554 21.5515 26.3625 21.1526 26.3767 20.7236C26.3909 20.2945 26.4029 19.9523 26.4127 19.697C26.4225 19.4444 26.4273 19.1784 26.4273 18.8992C26.4326 18.6765 26.4156 18.4538 26.3767 18.2344C26.3427 18.0741 26.2914 17.9181 26.2236 17.7689C26.1613 17.6253 26.0574 17.5035 25.9253 17.4192C25.7737 17.3284 25.6087 17.262 25.4365 17.2224C24.7885 17.0928 24.129 17.0295 23.4681 17.0336C22.2947 16.9351 21.1131 17.0536 19.9828 17.3833C19.7733 17.4942 19.5856 17.6419 19.4288 17.8195C19.2512 18.0331 19.2268 18.1497 19.3556 18.1692C19.5936 18.1856 19.826 18.2495 20.039 18.3571C20.2519 18.4647 20.4411 18.6137 20.5954 18.7955L20.6833 18.971C20.7787 19.1833 20.8472 19.4066 20.8871 19.6359C20.9596 19.9864 21.0042 20.3421 21.0203 20.6996C21.0692 21.3054 21.0692 21.9142 21.0203 22.52C20.9715 23.0253 20.9271 23.4184 20.8871 23.6994C20.8565 23.9363 20.79 24.1672 20.69 24.3842C20.6387 24.4946 20.5804 24.6016 20.5155 24.7047C20.4965 24.7339 20.4715 24.7588 20.4423 24.7778C20.3149 24.8269 20.1793 24.8517 20.0428 24.851C19.8611 24.8335 19.6887 24.7627 19.5473 24.6475C19.3243 24.4849 19.1214 24.2966 18.9427 24.0864C18.6802 23.7737 18.4437 23.4402 18.2355 23.0891C17.9692 22.6618 17.697 22.157 17.4191 21.5746L17.1861 21.1517C17.0405 20.8796 16.8411 20.4842 16.5881 19.9656C16.3351 19.447 16.1131 18.9444 15.9222 18.4577C15.8565 18.2702 15.7341 18.1075 15.5719 17.9923L15.4987 17.9485C15.4268 17.8971 15.3485 17.8555 15.2656 17.8248C15.1577 17.7808 15.0451 17.7491 14.93 17.7304L10.9347 17.7596C10.7843 17.7409 10.6316 17.7561 10.4878 17.8039C10.344 17.8518 10.2127 17.9312 10.1036 18.0362L10.045 18.124C10.0108 18.1965 9.99564 18.2766 10.0011 18.3567C10.0065 18.4938 10.0363 18.6289 10.089 18.7556C10.6723 20.1243 11.3067 21.4447 11.9921 22.7168C12.6775 23.9889 13.2728 25.0127 13.778 25.7884C14.2832 26.5649 14.7986 27.2981 15.3242 27.9877C15.8498 28.6774 16.1974 29.1206 16.367 29.3174C16.5375 29.5116 16.6707 29.6574 16.7666 29.7549L17.1315 30.1046C17.4522 30.4097 17.7959 30.6898 18.1596 30.9423C18.6437 31.288 19.1451 31.6089 19.6619 31.9037C20.2657 32.241 20.9102 32.5002 21.5796 32.6749C22.2721 32.8701 22.9918 32.9513 23.7105 32.9156H25.3872C25.6756 32.9083 25.951 32.7941 26.1596 32.5952L26.2182 32.522C26.2677 32.4393 26.3045 32.3497 26.3275 32.2561C26.3624 32.126 26.3795 31.9918 26.3781 31.8572C26.3648 31.4785 26.3966 31.0995 26.4726 30.7283C26.5208 30.4661 26.6041 30.2116 26.7203 29.9716C26.8036 29.8143 26.909 29.6696 27.0333 29.5422C27.1064 29.4613 27.1897 29.3903 27.281 29.3307C27.3185 29.3113 27.3572 29.2945 27.3969 29.2802C27.5424 29.2495 27.6931 29.254 27.8365 29.2933C27.98 29.3326 28.1119 29.4057 28.2213 29.5063C28.5525 29.7489 28.8514 30.0326 29.1109 30.3506C29.3879 30.6857 29.7208 31.062 30.1097 31.4795C30.418 31.8233 30.7602 32.1352 31.1312 32.4103L31.4229 32.5845C31.6626 32.7204 31.9173 32.8279 32.182 32.905C32.4435 32.9982 32.7244 33.0234 32.9984 32.9781L36.7274 32.9196C37.0252 32.9357 37.322 32.8728 37.5877 32.7374C37.7565 32.6566 37.8873 32.5136 37.9526 32.3385C37.9921 32.1758 37.9949 32.0064 37.9606 31.8425C37.9416 31.702 37.9063 31.5641 37.8554 31.4317Z" fill="#5A5C61" fill-opacity="0.5"/>
</svg>
