<svg width="50" height="50" viewBox="0 0 50 50" fill="none" xmlns="http://www.w3.org/2000/svg">
<rect width="50" height="50" fill="white"/>
<path d="M36.7688 20.4061C36.6983 19.6103 36.3531 18.8651 35.7937 18.3013C35.2343 17.7375 34.4965 17.3911 33.7099 17.3229C31.8287 17.165 29.0405 17 25.6001 17C21.4571 17 18.3298 17.1713 16.3079 17.3319C15.5176 17.3961 14.7752 17.7412 14.2121 18.306C13.6489 18.8709 13.3014 19.6191 13.231 20.4182C13.1072 21.736 13 23.4763 13 25.5514C13 27.5748 13.1063 29.2843 13.2295 30.5857C13.3007 31.3842 13.6485 32.1315 14.2115 32.6955C14.7745 33.2595 15.5164 33.604 16.3061 33.668C18.3279 33.8286 21.4559 34 25.6001 34C29.0405 34 31.8287 33.835 33.7099 33.677C34.4965 33.6088 35.2343 33.2625 35.7937 32.6987C36.3531 32.1349 36.6983 31.3897 36.7688 30.5939C36.8926 29.2831 37 27.5544 37 25.5C37 23.4456 36.8926 21.7169 36.7688 20.4061ZM22.3311 29.0685V21.9315L29.2888 25.5L22.3311 29.0685Z" fill="#5A5C61" fill-opacity="0.5"/>
</svg>
